<svg id="visual" viewBox="0 0 1060 300" width="1060" height="300" xmlns="http://www.w3.org/2000/svg" xmlns:xlink="http://www.w3.org/1999/xlink" version="1.1"><path d="M0 152L29.5 151.7C59 151.3 118 150.7 176.8 149.7C235.7 148.7 294.3 147.3 353.2 158.8C412 170.3 471 194.7 530 204.8C589 215 648 211 706.8 195.5C765.7 180 824.3 153 883.2 153C942 153 1001 180 1030.5 193.5L1060 207L1060 301L1030.5 301C1001 301 942 301 883.2 301C824.3 301 765.7 301 706.8 301C648 301 589 301 530 301C471 301 412 301 353.2 301C294.3 301 235.7 301 176.8 301C118 301 59 301 29.5 301L0 301Z" fill="#303030"></path><path d="M0 196L29.5 191.8C59 187.7 118 179.3 176.8 180.2C235.7 181 294.3 191 353.2 197C412 203 471 205 530 208.2C589 211.3 648 215.7 706.8 210.8C765.7 206 824.3 192 883.2 189C942 186 1001 194 1030.5 198L1060 202L1060 301L1030.5 301C1001 301 942 301 883.2 301C824.3 301 765.7 301 706.8 301C648 301 589 301 530 301C471 301 412 301 353.2 301C294.3 301 235.7 301 176.8 301C118 301 59 301 29.5 301L0 301Z" fill="#292929"></path><path d="M0 247L29.5 236.8C59 226.7 118 206.3 176.8 206.7C235.7 207 294.3 228 353.2 230.3C412 232.7 471 216.3 530 208C589 199.7 648 199.3 706.8 202.7C765.7 206 824.3 213 883.2 220.3C942 227.7 1001 235.3 1030.5 239.2L1060 243L1060 301L1030.5 301C1001 301 942 301 883.2 301C824.3 301 765.7 301 706.8 301C648 301 589 301 530 301C471 301 412 301 353.2 301C294.3 301 235.7 301 176.8 301C118 301 59 301 29.5 301L0 301Z" fill="#222323"></path><path d="M0 217L29.5 224.7C59 232.3 118 247.7 176.8 251.8C235.7 256 294.3 249 353.2 242.2C412 235.3 471 228.7 530 230C589 231.3 648 240.7 706.8 248.3C765.7 256 824.3 262 883.2 260.3C942 258.7 1001 249.3 1030.5 244.7L1060 240L1060 301L1030.5 301C1001 301 942 301 883.2 301C824.3 301 765.7 301 706.8 301C648 301 589 301 530 301C471 301 412 301 353.2 301C294.3 301 235.7 301 176.8 301C118 301 59 301 29.5 301L0 301Z" fill="#1b1c1c"></path><path d="M0 245L29.5 251.3C59 257.7 118 270.3 176.8 275.5C235.7 280.7 294.3 278.3 353.2 275C412 271.7 471 267.3 530 268.5C589 269.7 648 276.3 706.8 275.2C765.7 274 824.3 265 883.2 263.7C942 262.3 1001 268.7 1030.5 271.8L1060 275L1060 301L1030.5 301C1001 301 942 301 883.2 301C824.3 301 765.7 301 706.8 301C648 301 589 301 530 301C471 301 412 301 353.2 301C294.3 301 235.7 301 176.8 301C118 301 59 301 29.5 301L0 301Z" fill="#151616"></path></svg>